# xmcd
#
# Track frame offsets:
# 182
# 13660
# 27542
# 38632
# 55067
# 65712
# 77335
# 92537
# 104887
# 118650
# 134877
# 145037
# 160690
# 174012
# 185235
# 195985
# 211225
# 222535
# 234907
# 247652
#
# Disc length: 3469 seconds
#
#
# Revision: 0
# Processed by: cddbd v1.5.1PL0 Copyright (c) Steve Scherf et al.
# Submitted via: FreeRIP 2.93 
#
DISCID=130d8b14
DTITLE=Various Artist - Easy Listening Country 2
DYEAR=1900
DGENRE=Country
TTITLE0=(I'd Be) A Legend in My Time
TTITLE1=You Don't Bring Me Flowers Anymore
TTITLE2=She Called Me Baby
TTITLE3=Rocky
TTITLE4=Love Is Like a Butterfly
TTITLE5=The Most Beautiful Girl
TTITLE6=Somewhere Between
TTITLE7=I Lve You Drops
TTITLE8=Say it Again
TTITLE9=Blanket on the Ground
TTITLE10=I Don't See Me in Your Eyes Anymore
TTITLE11=Baby's Gotten Good at Goodbye
TTITLE12=Behind Closed Doors
TTITLE13=Help Me Make It Through the Night
TTITLE14=Pure Love
TTITLE15=Storybook Children
TTITLE16=Put a Little Lovin' on Me
TTITLE17=Wasted Days and Wasted Nights
TTITLE18=You're My Best Friend
TTITLE19=Stll
EXTD=
EXTT0=
EXTT1=
EXTT2=
EXTT3=
EXTT4=
EXTT5=
EXTT6=
EXTT7=
EXTT8=
EXTT9=
EXTT10=
EXTT11=
EXTT12=
EXTT13=
EXTT14=
EXTT15=
EXTT16=
EXTT17=
EXTT18=
EXTT19=
PLAYORDER=
